ply
format ascii 1.0
element vertex 999
property double x
property double y
end_header
736.11879383033 -7840.0302732736
-1213.7955060889 6460.7072745844
7191.6807627788 2228.9120760806
-3965.9682139745 -6085.5277929034
4518.1906339704 -7200.3966441305
-7499.3422772043 7561.381934826
-3212.4850288092 8063.3028029796
2213.5112276848 3541.6456582349
-5187.4562592821 -5885.8521717777
4573.1915571528 5253.8136659292
4953.9177536191 2809.3488668172
4551.2695142959 468.74824927223
-6842.1863015565 -4142.8331890324
-2748.6288731977 -7232.8594508473
-2768.4164174574 4866.1899169694
-515.69848275357 6159.702376373
5218.1596436958 6462.5060111575
4428.4096509574 4217.8404064746
499.41807960878 -7729.5585706465
6324.3126135712 -3174.3912940502
-6737.955214777 7016.9703439963
-3805.0093592242 -1758.4402359568
6888.2731393465 6600.5018684606
-6408.7945853513 -6491.1831199355
-7477.3503109465 6356.3969718015
6954.6305459936 5668.5674426726
973.74583861872 3313.9000526601
-2054.6843080552 2323.5595370622
7363.0668712571 3388.6868187472
3282.7000862149 -3597.3495538297
62.87672808714 -5424.9983965387
-5629.6471850861 -2910.9636282171
-7154.4923930105 6990.7624658713
-6885.1232293719 1536.9256942276
7453.2038952248 7631.1893841993
6554.5344001774 -7476.7513195522
6456.1597205662 -5442.4749666762
-1043.191555509 5152.4328599127
-7033.973105845 740.01385913976
6853.2497399772 -6319.3234167915
-1095.5891766882 5615.8802783414
7541.2440335104 8070.1566619306
737.78032337212 -2705.4402821741
2201.7161989928 -91.15281300021
-7508.7534710564 -2707.5837224217
4503.4976331701 746.12326466019
59.417881039632 7065.8504557134
6027.1596364431 1096.9254956585
5864.6129139553 7334.0364070712
-5558.1488177432 5125.8168091801
6773.2257836411 -7195.6144251952
5841.0654896279 5037.3855042073
-4446.089384242 -3394.1260735104
1997.8183564906 -3288.062490087
5537.8877856293 659.0680888384
-1415.3858992492 -3749.7013986882
-1917.0516404496 -2066.1418733681
-3871.5447367577 7012.7286829225
3420.4178444577 6522.1714622351
-1270.4241300777 4103.6643734014
-4377.412267816 -4958.926504537
-3342.2123695678 3874.005620853
-6085.076056453 -5507.0527407541
-3221.0688911178 7971.5368651317
-6365.0163413123 -587.21770886109
4905.3536666824 -7783.7905576712
409.16786594371 2554.4191486809
5445.594946536 4155.0784817017
7352.2930751705 -748.58670460274
-7324.9840083853 4698.1808531704
8102.4813842357 -548.3699076345
-7243.5205531472 -2006.5702638433
5577.4882189974 -2923.0652899049
-3185.8415885502 805.90605582572
-4592.8938352991 3735.7342813722
-3282.4295784023 -778.30609548572
6968.8077844646 1567.3580596593
-5096.3004822621 -7308.2682796178
4252.3053189052 -125.36937337991
-7528.7314221155 6079.2889852222
7479.412917759 5568.622244567
6487.498427551 -303.41922392669
-68.958614381477 3741.0933664577
-4340.340742225 -908.66554684037
-5199.4933457745 -3473.3247506103
-4402.4847012993 -5289.0119691682
4170.3053417552 -3454.0052468171
896.41776698847 1555.7935531232
1814.929463278 5902.5761784383
-5830.3003986805 5414.0356356083
1446.3104598105 -920.7299770828
-3556.2704675068 223.11823664565
-7545.3719250529 -460.57094976891
1106.8499570279 4898.9334014817
7606.0596768512 1770.1185425418
2786.2223790745 6893.4725869808
-853.25922052062 1081.7207989961
-1601.9466445753 7269.7821727273
-3369.1858421756 2249.7126131997
-1830.8833817425 -376.67918795006
6968.3878625894 1958.6319245876
2526.3088428817 2946.6931967152
6696.6266777705 -4769.2733977592
-3689.5132577911 319.55613341907
-7058.6972269503 -1327.8136564716
-2458.4082386021 2579.6132328602
5943.456374075 2177.3212938911
-5389.2685381236 6590.0844490221
-6475.2496635072 3909.5814265337
3297.0178428744 -7061.1899942854
-2512.3000385539 -2108.7597856805
8024.2825926953 4826.4407409255
7164.9610133157 -1769.66405188
3904.2229060234 -4396.2248364893
-7711.9514463097 -6118.6604757191
3419.0959755606 7448.4364239091
4031.9714488685 -2246.595189187
2203.1296129949 2536.5981190096
1176.1314130538 6705.6163628332
-5335.8457552008 2309.4341937329
-2814.1973012677 397.74601382657
-3302.9525810363 -5062.7409348221
-5616.9326999117 -500.22111153054
-6664.6564858 -3900.1823557896
-4782.6396926263 4824.3613570744
-2769.372350075 897.06026881983
-5476.3984286061 -2937.0897573797
-2468.4989978841 -6503.4374229198
3485.2461907404 -6756.2760918607
-2707.6622517797 3965.2947444307
-4682.9365675798 -7480.5662838484
3221.7311607104 7541.0348812887
-1535.161465406 -2767.1392262947
1885.6329926688 7832.9699476478
-4253.5228710908 4741.7872374681
1950.4041337512 1124.2798276415
-3052.4667563347 6839.4515603443
4253.5389004487 -477.39944861708
-1852.7695588156 5780.8824146487
3814.4181955934 1556.5907485581
2413.2437640937 -7146.954162111
-5738.3489902515 5128.8453354877
-1892.0439194907 -14.847988135576
6817.4079201973 -6598.7977363797
1420.8759200037 -4082.2543392117
5558.4970156804 4929.9393524239
-3370.8206230601 588.22816876146
4278.9742260831 3286.0179115338
6013.0889424668 -2027.3927888774
2926.9878591816 -6432.4339362534
-5477.6055514094 -3314.6080146966
2883.8458990175 -338.0723077441
-4667.1564619817 -1054.6152081632
7376.5282436388 1672.0739792027
-3465.7328011439 2998.9464316028
-4963.3352798686 7139.5109629498
4043.9922771212 -2509.6842701201
4076.3562984375 -6040.0516499989
5667.4677493737 2701.7642110054
-4446.8493787492 -1103.656338252
6811.5098717937 -7080.3523706982
-4365.7169858281 -4751.3107588959
1699.8757980633 8105.257240255
6726.7071602674 -479.03525946989
-2114.1355486224 1461.6950118196
1280.5308042767 600.25889996824
6339.086997123 -4027.6233043352
-7929.8134154053 -6520.0694648587
3109.7614875016 7638.714835863
3344.004514344 7836.0286863577
2445.6612598364 6572.6692421048
6783.5396493075 -1702.3464706719
-4129.0150356446 2667.8959401156
449.60188695863 -6653.5472939003
-2822.3398565083 4194.7525082094
434.79637547713 -4202.8299923441
5306.4001375113 4261.079389649
-762.14075123991 -1185.7240720548
4174.3366222746 -2227.4335986019
6527.2406684753 -6131.7989339772
7426.2614132176 -384.22852724801
2660.4599659911 5573.3484103407
3780.1481684168 2922.6465582152
7245.278945482 -1302.0903440817
2369.3613864488 2397.2834521966
-1658.0616653534 -3376.9773613443
777.95268667208 -3066.5220236753
3112.6761756133 4840.9376586568
7793.3739164404 -4629.7219450575
6379.3903647565 -3220.9659476974
7757.0305631519 -1377.8132673957
768.20405995855 4871.4306930338
-5308.7338853761 -8185.9366912814
-4506.2933866504 7057.6027445279
-2221.3702898833 -6171.0527181751
-7266.1961970787 -2987.1088766656
1636.7187545769 3586.2637765418
-5605.7604739544 -2775.1330846358
-1683.0896728724 -6552.4815361018
4114.7765712825 -7505.728294053
4036.8019160949 -5735.2850940708
-2690.7056553972 -3377.2453972331
-609.80711774612 -7770.0294874134
-6728.3077462056 -1008.4332013058
-4207.7514324709 7843.0826185509
3962.6008509968 -4642.7208769483
-1726.7306488448 -3461.1950890446
-7963.2901915439 1156.535465779
-3455.131780326 -4277.5835705649
22.138202677545 2515.4979297908
-2256.63628874 947.94201322828
7720.3890531251 7572.0824658368
-3657.7942178593 -6077.3714284587
-3395.0506264284 2851.1161092683
-4437.8529645604 -7472.2740551458
3537.3878152153 7790.9489591638
-5015.5591492167 -7345.3178478113
-3778.2964456986 2566.6337330372
-6923.3473275953 -2314.6041919042
-6633.7994758979 -2939.0987600661
-2663.5215809827 5520.8013827283
610.18037061495 3801.7477701724
-6132.3937139457 838.89017907106
-3233.7167640485 -1395.5254942717
4753.3066085062 4980.421438629
-7072.0275721103 -5695.3296878633
-2263.6365557721 -7543.6385189852
-6315.2472296559 2270.5692263686
-5429.0099474439 -1518.2978484548
-3070.3146719925 -1674.8629043749
-798.57190360062 -7724.9268644065
-2075.9139528405 2377.8689471827
-6878.2447045884 2337.7896014609
-3247.4973274095 -5609.5920321837
-8168.8145980727 -1689.296795678
-356.69079224984 -2640.3361790554
-4360.4954205791 -7938.5104292643
-7030.588408883 -2300.8891345248
1092.3797574362 -2072.3051729315
4495.5853712035 -2346.3136416871
-5283.8837419319 5615.5577990932
150.35667807905 644.47970992535
6263.919280108 2027.1094484232
-5276.9510713354 -7357.0906673358
-7683.188407661 -155.26573569852
-839.95357171071 -289.76031126164
311.80739989495 5276.1324754488
-6103.8913717083 1625.5626953065
-578.07793071963 -1159.3886914884
4207.9706631228 -554.89252879233
5343.3145128336 -4340.720129127
4996.7712921522 -7209.1809153749
-4087.2305583913 6158.1828832692
-1318.0700498997 5197.1491990449
-4106.1222972917 -5014.4846863255
-5341.1644426422 -1198.0060315942
-7590.9268948617 3001.1922354368
7638.4736783311 6864.9923928757
-3163.6983237694 -5830.4774006337
7699.9017255399 -2654.886723801
2206.2568636677 -1332.0518538002
5247.3529649374 -5673.9357364373
-4247.9193859808 7335.4616008585
4143.6269588692 3366.0026832996
-2015.9270982593 159.59762199204
-5380.8898531221 -4864.6125930551
4010.877492865 7807.8814390301
-3881.7935084299 8115.6469344737
5774.0643222994 2992.1364416704
5120.7961335186 -6524.0579826217
6169.6517553449 7971.6316908764
469.93598578402 6770.7248604832
2780.8239186838 -83.590343514266
5443.7172457295 7809.1255949145
2277.9322634814 4951.61896364
-3037.7611365159 -3707.8108804802
-4572.4328977896 -5982.4081715785
-1189.7466169175 -628.35228377038
-6838.9465783494 -5238.1196580483
-5454.3496081002 -662.87367660872
3113.4779639437 -2643.2394612223
2664.5137303362 -1067.6445508206
-3027.3580221922 6974.7202219063
-1143.9976239763 -5445.2937075222
1774.8566559473 -4215.2014980871
-3777.351690144 -247.49159633717
-4435.5698148401 4884.5843032694
-1668.7667434834 6537.2541038437
-3391.0060478742 -4417.0494977539
6154.3796987582 7078.9262156072
-7657.4305417433 -5075.3814453871
-4820.8846648731 -4037.8634319035
-2865.7896169656 2181.3687182094
3525.7842843261 -1512.736195315
5135.2490601611 6263.4346838554
6016.3901280763 56.72701647539
-4571.8047849963 488.90385078308
7181.0824656547 592.83719281146
-728.37593494001 -2154.9151583216
3339.5434852892 -7145.5192866221
1821.8833435913 7754.1918027746
798.98911704076 5578.3135363806
4446.7760984147 7322.2223811868
3923.5676325949 -7136.2299570889
-5286.8271241965 1885.9473237237
8134.6962661476 -4752.2576659397
5002.565885966 -4878.1884063548
-598.12109784322 -6055.223738629
5495.1803118545 -5264.3368135171
624.04007368537 2438.4293720156
-7192.9021372911 -1551.5698058678
-5696.8436191384 -3572.7069222875
7129.3340525447 -6707.7611534837
5212.1302781534 -1791.0418900247
-670.67631180523 359.67375581324
-744.56116901737 -7040.7929758433
-78.134449041511 -8137.572059606
6729.5205605372 -3823.3583582562
7376.6503215808 2461.0881931321
-2767.5883077158 -6102.1768102451
-3844.9644907736 -2824.8920491975
-2662.4344685555 -7034.398612437
488.91954444764 4931.4444336013
-4897.6223434366 -2207.9001513272
7859.1076200842 3918.4177302487
-7961.470786941 -7525.7945248363
-5825.1520832484 -5466.31439845
-2906.5014394943 -6887.8180383331
-3982.0755519336 -5886.3711689703
-486.85992072842 3539.2481362611
2665.3025868429 6960.5789102542
4690.4551604178 -5604.8318621986
7015.0068506482 3227.975720955
-1236.1902204548 6199.657172229
-2502.9360935422 4188.2214718294
-8094.5196456455 1844.0994156842
-6828.6705849975 -2564.954114201
3001.7008108765 1852.2489594502
-5825.5096805997 6296.0784674399
7836.3488157524 -6158.4020681448
2022.4961900592 8066.8780288114
-5492.1965853517 4389.3441068108
-5591.436377268 -206.69802484601
5693.5260761071 -1381.5119292017
2098.9308061837 -2985.3338522508
-6034.2638005699 -3427.7666146028
-4216.7549496259 6848.1913674773
-840.59847680135 -5393.7481066071
1884.1670808029 6115.2113103733
-7386.0909420075 7573.2309872607
2111.4327745733 -7288.6105800237
1225.3303953155 3474.7621972052
-1661.5646942247 -3964.9688014374
-2864.988850974 704.92562517567
-5860.8903416269 -3220.640042851
2738.5235646602 4353.6058484323
-3345.7620140397 5438.3269793085
550.94995524313 -745.1983913077
-2960.3710531669 -1947.5239762792
6065.28968712 7330.5597530168
3259.14217147 -8160.9741210793
-4289.2068692153 7234.3872218441
6879.217246398 3062.1946616127
-6351.3608923924 571.38431957149
985.40596435657 -5545.4518267705
-47.384700797212 -5095.1612686995
-4642.0624067942 -7014.0543054817
6571.6009285057 1888.3728989811
-2787.0231069191 -4485.3879224683
-5598.7014758432 -455.91344091665
485.97203468064 5331.8220888171
-4294.3076001137 5332.210020641
2578.1490604962 4448.6423551294
-3604.9883706667 7809.7780073293
-5690.8816287792 -5731.6986911761
6948.3377527168 5760.2605426909
-5700.6728122554 -5532.869124128
4802.6477569056 -7013.4555658574
5721.3255374848 6643.2868721426
1749.928753714 -1485.2685057881
-7094.1649622573 -6489.4559470832
1611.5702331418 -3544.2273690515
-5311.5102525649 -8.8288459818941
6536.1455299296 93.466640515935
3697.7832315498 -7254.555953543
7829.5531995993 -4008.2447337696
6269.2661352741 -4656.7544005144
-6868.034720758 655.41518814089
7983.887954615 -2281.0230914247
273.19318784084 -5898.9936741642
179.27821739916 -970.46906707178
8053.2668685267 2670.6054127731
1688.6618164297 4663.9146254323
3849.1498469157 -782.01265371498
3115.2014899455 -2592.9214069997
5924.7188481263 4213.0365276882
-890.37735408283 -655.71092636125
-7523.1908489928 1990.1123933523
7527.4602276569 7204.9546809369
-6108.4209661318 3033.2434592067
8142.3987350233 -6470.8677741619
7216.9987254371 6219.664862668
-2935.6221746763 -7843.0360029503
-1316.9199491911 -3143.7342200613
-1932.0590867456 7148.2732386497
-850.7278942255 6439.2191306535
-2014.1958284221 -989.46103332819
917.82453579727 7866.4659880076
-4517.5464155253 -3425.0256249164
-1107.5466733368 6789.6550744202
2174.0529757133 -3374.8278328398
2810.691594479 -6908.3243859989
4161.4612407989 3479.5007454862
3273.7880149827 3496.9214684558
2492.4554264231 5357.3670488509
-1661.835079967 2442.854153817
7078.499274689 -2636.8363621593
470.51900885558 -4049.1228999873
-2287.8723651096 7345.5990596645
999.14287995135 3972.0685481448
6301.8722983142 -8043.5850219035
2219.2876787983 -3904.3235377373
-841.04605523173 -5054.8877930338
-4229.8575573591 2833.4075368724
-287.91341032084 2854.5957693041
1431.0626036632 -6305.8604422369
7671.7679440937 -3950.2458018578
-5022.1848282359 3641.2291772632
7721.2549436284 6443.6031867469
-1053.8493619104 2021.7103624221
3608.9702279684 5476.3155581226
-3727.4354913903 2495.4695026574
-5352.520811666 4935.0835250947
6638.3466026701 551.60683085379
4088.6825771298 -554.51052500797
-3668.3246286308 2198.5548678146
-406.09554691152 6742.9630501675
6486.2313300773 6944.8583978568
-6503.9247428663 -5935.6262349112
1586.2659270997 1400.1618468129
5110.9695420223 -5174.671469237
3286.301404576 4590.7374784866
-932.91727109482 6456.1165763401
39.966648120417 -1403.6623350958
4707.719763087 7178.1172938394
-7573.9519726736 124.68998342598
4462.4328443326 -3109.3874640639
-5571.840521546 7301.912040296
-6366.3039465986 -7125.4939265053
-338.48113647964 5914.3786381606
511.99554848671 4185.1942348896
-79.06650165425 -8086.1000060542
2736.1572850571 -1784.835171577
7050.7583994319 4424.2325421908
471.53859351181 445.0243189023
-2367.6056186257 -2609.4918720953
3462.3528496653 -7273.3042216791
-6210.7544012381 -5662.564429059
7374.812354661 2021.2122545118
1125.7732434747 3890.5321101186
1007.3295407218 1743.821270801
-4176.7779064555 -2722.237622575
6826.4338067372 -1556.6184280015
-3612.3255899084 -7731.8701398614
-490.1123468774 4241.1932736119
6374.5084982992 -8170.1168060201
234.38750850148 -1896.5580109845
-8064.2168044449 -5221.4552140708
4510.6068174385 7178.5415949871
7394.77732812 -3209.8545890496
-568.43409374004 -3164.8282981351
2372.6535388551 -5298.0812440748
-2246.1325198142 4353.8991452464
-2768.6456731337 -3063.3201727827
-1816.8886078712 6549.1275703409
-7364.7880626641 7382.4409328506
100.94883351258 -3349.5659691196
-3531.7966973538 -1264.6173597503
3285.815602879 1047.8777203671
-804.48749961168 -5396.2967516278
-2902.9290136504 -2621.9790089419
-5374.4135500185 5523.4584948511
3673.4629800736 -5246.6303544634
-7889.9967268491 -7.9302024878234
-6260.0887671058 7696.7806012709
4974.2152084625 1363.4771391542
-3660.0477044936 -845.13126031176
4257.3958950794 2285.8197756921
-4683.2321226947 -6703.2497780543
7414.4996105388 1691.8792694341
8037.8777922866 -8142.2884597547
882.32019465525 -53.173374200786
-3299.8544288743 5542.5235049308
6874.209266049 8177.9611740047
-1601.5987823315 -2122.2782411921
-5410.3355776231 3687.4722040181
3447.742749866 -2592.7491276417
1018.9306988693 -1070.7942776898
352.62051789491 1320.9339720201
7113.2755198224 2284.5317507892
825.714573291 3895.4907206555
-4543.991117686 5357.6668687973
-5141.6405396562 7905.4047850228
-548.51335551055 -1632.8726623509
-6989.8450006609 -1326.0137526011
-8132.9933929169 -7143.9672160037
-1276.3022123558 941.32680173839
994.85940979554 3615.8433587699
-1708.1497009602 -322.9313317849
3601.8045251452 4882.2515167083
5746.790427023 6383.4689475221
377.72372072643 1002.5331692596
-4401.280187749 -6795.3455880337
8123.7388991992 4143.3403301459
2717.5883839864 7045.0144113922
-1764.1279266943 -4648.697050352
2748.5051320477 1883.8809632491
-7483.0301815546 5798.8645923915
1597.2857406425 160.45646293483
-4026.0080775889 2799.4407399816
7026.4427103337 -3967.0014705057
3847.4735239779 -2441.8595096515
5166.3253388621 -3349.6670662266
-7018.0161585109 -4733.8243697276
4519.4016019885 4775.7883666343
-8043.5728530193 2074.1920290115
2967.2573141564 526.15086770717
-5115.2748093583 6757.9771264074
1922.8052796735 -5183.5359177885
2709.3174565534 -3551.6063439695
-6330.5215063964 -7246.8104777703
-8.3033866920987 4609.9836256513
2829.0704854788 700.66643175328
2216.8482104134 -3765.6437815082
-7330.8771129413 6382.8401328245
7225.7969584734 7887.5655973924
-5776.1613376812 2881.2704824513
-2746.2939198885 7582.1640011809
7723.6034162248 -1572.3100783994
-5343.6603761761 4051.0050105839
-4988.5217193945 -5195.2332291953
-2066.802968034 6170.7355947619
3522.9176385118 1009.9222302371
4736.7127211693 -2746.2770894441
4018.3863124486 -745.9698299067
1894.1165742158 5879.8648060522
199.21969232299 -6306.1868201057
2297.8484240742 -5163.7098221982
2586.4796116475 -3677.3033731418
-737.35360370639 3447.6024987062
-5486.4632403173 -1703.556645233
3143.1680884693 -3070.6245779985
-7014.2861704111 -7795.1258390486
-3680.460584447 -7482.6827618157
-1175.435917448 -832.12096062308
4760.3222487682 2028.0423631575
2164.645817811 -5498.4807192658
6.7779579194157 -2504.4365513066
3703.4415109714 -3448.5093285407
2941.2863668787 -470.17218420942
3997.5208415527 -3356.597066535
-2782.3073781572 -3995.2594737537
-1470.7838866407 7707.541045917
-966.96929595199 -7076.3042826226
-4161.7623272248 6487.677107971
4563.2982160837 -1456.2255675421
-3407.8795448914 -485.53370307644
3665.1498544594 -2230.1657153024
-88.659542125026 8176.6892700124
-1520.8484771181 6927.904540427
-847.43169824008 -4952.5262359793
763.9468959551 -6874.7858880585
-2259.006955245 -7421.2751537549
-1187.2224317357 -6747.5654519031
-2677.7844822955 -6437.9360724864
974.26237151691 -6872.2636483723
-1602.5331390214 6383.9549933597
-2675.5231144966 5118.6829743379
5899.4960316473 4549.5075895514
6234.3786917154 -6454.2663032069
2845.184689893 2605.6769001697
281.50812925096 7629.3051450016
-6071.8568105362 -4245.342023919
-2792.8605779302 2031.4836473388
-4260.652761536 3878.2909449517
767.3881801364 3083.9155478533
7117.7647166018 -6660.6649315379
4401.1296597948 -3333.2422462726
-5889.9400776634 -4978.0927795703
-1888.8076905463 -375.7245599589
-3224.0288520567 7277.4546809706
944.01179929823 3365.4380089219
5469.4096667009 6460.4886848016
292.12097563041 3176.9056907189
2817.9962667236 -1665.5003402836
4914.6393951413 -2528.8190433834
-7251.8234477433 -2995.8524832371
-3091.5139060111 -5131.6802582795
950.80550047327 2307.6255236881
5091.8033890593 4882.1527389372
-2006.0835389896 -2332.8084384337
-225.93172083885 -3080.3188300171
-801.47336234221 -4016.8020610441
1778.4389313396 1500.5865599944
-802.89484061436 8081.6312407933
-7067.1380075939 4165.0763149583
7167.0859141346 2068.8737917044
-661.48568374919 4444.4955732061
337.36246887658 7822.6352995106
-570.59874370443 -5036.6412643998
-2034.8650484024 -3847.9593561925
626.5396922168 -1094.6884885163
1348.1881681998 5727.0257862057
1965.6312532041 -5893.0063389563
-157.34869773563 -1134.5653577366
7181.1463999809 6028.5677709042
4724.6262038297 -1236.7853208579
-5243.7510667423 -4268.8471661419
2938.412618098 4726.6878645973
5423.7393938525 -6056.4822301457
4616.3190977612 6548.6013938881
6300.5940848126 3591.4050042664
425.47517796302 -2552.8915989366
-156.09943015692 -7429.1623531604
-2922.2563070554 7465.301833768
-4273.8036175602 3234.8786445422
-4574.6575300538 4544.7360746566
-6051.8098516035 4965.530638146
2079.7618532329 4105.82140923
7264.5242991897 -6269.5868445028
-5220.7439561359 6253.6706991706
7950.9809264014 7695.8822476938
-3175.1146293167 -5484.7701479703
-4764.9649184481 7955.2979887814
7433.9177242564 -7533.225532225
-6293.1842489937 3858.2368143882
7207.3758616631 -8184.5901641811
-742.35818134544 -559.1489603739
-2545.4817631177 7293.5423884976
203.6886864657 2724.2619298269
6566.8442146363 4121.8850689055
-2232.8594332602 -6199.8133154175
474.62113593268 -92.669277234315
6957.7173227285 -5637.6170184638
-4178.8478756337 6030.2416219182
-3715.2038629666 -1207.5918317696
4091.9123134594 -3956.2229441946
-1703.7095917052 -7275.2023234867
-1248.9930845355 1723.3254898467
-7511.9043423347 -2007.0753679085
2382.0999652511 -5613.0885913284
-6340.8385611497 1397.4758192848
-5605.6787555095 1108.8032575049
-7353.6731487185 40.839481372777
210.34564600249 1042.0155377472
-5426.8985964297 -1414.8101469906
-3028.0994009767 532.24197793949
577.37653759186 5638.521734956
-7752.4273069242 -656.90613967968
-8191.0952835079 -3739.2751825579
-2818.6645253909 -3714.2991464745
3245.1329856725 -6918.7522195609
521.47791696036 -6650.5766136621
-6001.9545430476 7464.4848324249
3264.748883814 -5321.8588853822
-2734.590543113 -2545.1511585643
-2742.9474767106 -883.4291042627
7044.3246607205 -156.62622459076
-7966.6258467578 7882.6515196313
8076.213256782 435.71979924465
732.66704974913 -5542.6853396477
7212.909652254 5896.5676564018
3181.5566382918 -401.7138101541
3343.0893837284 3621.1293313676
7133.3800501662 3343.9941002205
8073.8541488097 -3877.2844828541
7821.6949613754 3126.9871268528
-2604.036702415 151.17287070638
4668.4105131907 -413.99124546256
-576.34230449812 -258.84061062468
2456.1498691552 4881.0671523889
5388.008230811 7905.2023924446
-4194.3619595032 4240.3328915314
-443.42383977558 -3968.987806261
3930.9844035334 -559.21058299356
4658.7319929836 -3528.3485543469
2090.1040773588 3679.6416452376
-5823.7809055745 -2920.3392919788
-4914.0721725459 5711.3084857833
-7491.2099682406 -5972.692130009
863.30257837442 -7609.3558270602
-1657.9766128631 492.99753212044
3709.6312997926 3929.9866847219
-7547.8296048026 186.04180535397
-4676.0045683701 67.82809069931
8119.2012023587 5972.1453007851
-3243.1047645412 5315.2094255403
5685.3476856003 754.533283585
1363.5423094423 -2950.0761541752
4977.545477324 -2897.4732946537
4682.7132628312 1444.2774703076
1766.1781586288 -1419.1826674394
-3068.0808920842 4134.3972530544
3852.4780405818 209.84693536993
1653.7057312083 4553.2680723412
2429.1548053609 -5674.9916904173
5135.912245281 -7420.8218151316
3010.0058417032 653.54353744422
4701.1648695903 3654.17624453
-7352.4146648312 -8166.8397064092
-4469.9956724001 -7425.2134701019
5997.305594376 478.89957068809
6081.9959630677 3490.6532723469
-6958.5671533563 -746.46173511933
-7651.4228894577 6210.9783239677
4548.0649778564 5223.2903733734
-536.74421335419 -1877.7568711442
-4387.8923016954 4587.1748945616
-5935.3596257192 7656.5857388864
-3394.9781776979 3910.3461131185
4017.8538035983 7226.176627663
6427.3544227012 961.76604124986
7997.3548125314 1245.360256775
-6576.6904289353 4506.5196744923
-3292.4635063244 -5737.1050861371
4531.6799680831 429.54082890485
-4970.318556239 2336.9855548297
-7283.5596080364 -7080.3226008007
-2364.3611728234 -6050.1267613927
365.21567170937 -1823.7840622811
-8031.1484450545 -3278.7193580636
-4792.4936889077 -375.89265077929
3035.5237707922 -988.38599060308
-3980.7177638471 5292.164145073
-1523.8002517167 816.30406608447
1010.5102505621 -5697.9464557478
-149.51931388188 -754.13533436606
3455.8195931315 -344.16450135045
-7700.7750775911 5071.1291641961
-4029.6448344875 -2801.2385839155
7526.024078059 -7689.9648664044
5820.3022449893 -5636.29447818
2839.0206884253 6728.7426369529
-4524.6170789807 -7717.3404920275
-7513.3841320692 4032.5985927287
-1349.1245466793 -7352.5325694943
-7438.1207729644 2050.381764413
463.57477972637 3789.4029978278
-7130.0042338194 4674.8570158793
889.56714290081 -461.80448553609
-2700.8389256656 -6291.9226141665
2032.2490663455 5341.6417680819
1145.9420590969 -2703.9313481524
-3194.522740898 1637.1669815058
-5824.8021915857 967.8324246145
7027.9283975903 -6490.7781135267
1469.8675582101 4656.2306425796
-3935.0725917067 -3883.1117533646
3192.9732719031 -267.6896706874
-3408.4522453921 3871.5891474632
-4427.0910779587 3434.4232079286
4711.0565779689 -3673.2118509231
-2707.1950352877 -3017.3686499341
-8075.8088530953 -1645.1992614778
-6534.5116416842 1005.7582898055
6084.9962529861 -1043.3505597205
2905.835675639 -74.754688297749
-3893.708799268 -4140.2222728935
5413.3139635498 1103.7684598341
5688.9447086123 7780.5117795935
-6120.3991231808 4524.8731062025
-6902.2663415625 3541.4684426586
989.10374115273 -2645.3389332692
7850.356689294 -4009.9229945736
5278.9713960434 -3750.0955637275
8053.6661528897 -7340.1196895447
7876.3276518305 4572.7227232292
-2821.3315328384 -3022.8673910866
-6636.6459343343 -2705.1403859338
3523.9333474356 -4979.1575683892
6492.6179038717 1416.9296004218
2169.4918718904 1206.4535718814
-6849.8250955054 6467.7830726224
5258.2313066173 6755.4888756738
-620.44847517295 2755.1760076001
6344.000647638 1451.1524016462
-911.95089382676 7633.7343060755
-3199.3791633245 -8114.8471603034
-3203.6046348231 -3541.0224816599
-3932.7701472476 -6116.6332464091
900.88196224202 -4071.1040019873
-5264.7529283244 585.20960644316
-7690.3812787581 105.91553883716
5754.3422153566 -6135.0272130924
5592.7751529034 1086.2755627922
-2922.1847814816 3893.3930491458
-5688.7948444154 7439.3070904088
-3092.1533866023 -4346.6199399208
5715.0901554018 -6025.9220876144
-5783.1310718763 -3097.3583274006
4921.2539276151 -7631.1304318677
6545.794081875 -4182.696973841
-8189.3961334216 -4845.5850890789
-4105.5441265151 -3201.0007682447
-194.60756310942 153.68572623734
-1125.6340070244 -7485.7256084968
4274.58172425 1801.6130646512
1291.4839979464 4776.2004454919
-6284.471404141 -1146.1737943265
6833.1732400289 7500.3037487624
8132.1017684658 -4281.0115490821
3201.6967902787 -5748.693083579
-5033.7044586733 -8082.4566039529
-1903.3130158704 -7510.614310901
-5916.3786839379 505.55591225324
-2415.9726306721 7196.8752436772
1066.4254880149 -4062.1785564265
-5177.8217377932 1069.0293545933
-715.76364550542 -1091.3658643083
6060.0285939779 7281.6287913852
7254.3198619291 -3257.6054206759
7987.9031828884 3336.9015861791
6736.0076439753 1087.3871732053
-78.897975958371 -7740.4637677951
8133.2133865083 -1437.7247435589
7951.8399809673 8073.3151473446
2473.2637149884 2961.5367636166
-5867.3779362344 5631.559256315
3071.0801596637 421.30904789516
6312.9449454141 5346.7014757258
-7265.135047481 -4295.0276928875
4351.5767117737 1993.2904405339
-165.20624931399 7365.7549816099
-5129.6802048728 7311.03011281
-1917.6108903278 -7261.6516185243
6400.6588965657 -2855.2910283987
-2327.2570392002 6196.5620794541
-7710.389449849 -3783.2494028542
-908.05075496996 402.71257419265
-3331.7131706494 -966.83737609109
7156.9878382632 -3571.8731973115
-1085.5222287465 1438.2515456221
7581.6635663051 1239.0998350191
-1122.1892056922 2460.7437183395
-6531.5911247151 -3001.2442679076
-384.55480593469 -5604.7261721961
895.72804683434 -4224.9781017904
4580.5642759672 -7461.478210109
-5051.2231278099 7642.8840710944
8041.5519027009 1223.1659894917
-7810.7675550593 6250.2107992667
6559.874961093 -1946.0245942595
4254.7728710914 7041.485511244
2462.7260028863 -4845.277891508
-747.80192219271 7323.0128322369
2379.8847400303 -1782.8140915589
-4440.8603727039 -6897.6374963455
7847.4374540632 -5051.1968140282
2533.4623386736 -1466.7517592584
5601.5469043113 4193.8712139585
3724.0039804634 -2975.0079092528
6781.1450417625 -3572.2679803317
992.01399658621 3169.7093101003
-2841.7461904407 4132.7908687763
2620.5933735653 -2992.1942877398
-2836.0431493614 3001.825818506
-4933.9834961025 -4468.1681958978
-7136.1987833829 7512.7893749889
-5618.6826922832 3518.5272195034
-5524.4885241485 1825.5153931535
2649.540044111 5047.3962158819
-8149.2987060348 6400.6796714071
6341.7587195364 7890.1387556578
-6842.5171502505 683.2210505806
-1768.6130112301 6951.0297616902
-3314.9077430903 -6236.6090383961
-4215.978155192 -4725.7627013278
-1616.8770187278 4968.0358413942
6635.9466087725 3733.3767984609
908.82671017052 1064.5399823378
-7450.8174969083 6264.7835608091
-4125.6342067856 -4192.8009930108
-6395.3846350887 -3069.8329825391
-4872.0116256513 -3822.0673273718
-7743.3057706651 -2204.5001497997
6195.4480657817 3098.2342810753
-5349.1039339179 6238.1493673763
1306.913944853 -7199.3452220109
5936.2881154047 2656.3968022319
1675.8758361991 -4024.3249034548
1415.4265562927 6552.9680931088
-2068.9339342215 5391.4484011007
-6364.7946158484 4506.1890470507
2167.4842424949 -7920.8480070759
47.565837882257 -5115.689054964
1335.6919752619 788.74834097398
-7042.9055017842 5402.0577684762
4787.9473479632 -5246.2901368729
-5859.7752216923 8107.9357223119
-876.35745661536 -5411.080984728
-2288.5644274878 -2872.909398463
5879.1532963473 554.33163859431
-4826.7600387161 -1005.9327664291
1546.9864165834 -7082.4719309409
-6541.5359718267 -4969.1377548469
-2914.7968267662 3065.890584466
-6608.1696617381 3208.2692390123
265.33898556667 -4780.9642775864
-477.54172156637 -5759.1767795678
-4509.8122846623 7762.0241239453
-2682.8658345318 5017.8796905996
358.77245728987 -1533.771336316
2227.9374590758 -3045.2801947469
1411.9385344404 4560.1622373835
-3129.3444800644 -7656.4189298043
7341.0812526555 2774.0910924478
-2337.3283282674 5028.2345413734
-4863.5772765873 1027.9116406459
-4169.6982250557 4875.4091476255
2137.439709705 -2519.2341968823
8098.2713927786 7414.6428829388
-7645.3436124163 -6701.8982765888
2430.9121143217 811.99537315033
-3290.8625465459 -6238.6296072447
3244.8185935825 391.32516879184
-6668.6054909288 -7630.0472485787
-2782.7951406086 1882.1669663611
-971.81858489468 7637.1423184672
7028.8867716141 -7751.8800580836
4005.3045482213 -4292.4577084502
-7216.2989878879 3154.3858008768
6673.6333839975 -1361.6273085259
-9.3796653791233 -6381.9438925897
7858.28433212 4012.9221095652
6685.4652550358 1803.7240341956
-6698.3120873171 6591.736640185
1026.3669171344 -6151.6556997335
8081.8383712256 -4734.7209761733
2852.3396734168 -3401.0241829497
-2781.350583418 -2094.84174063
5182.3009858422 -1257.9560743468
-1532.8889892087 -5792.4941623958
-7567.7891079857 5687.2924258966
-6347.351851558 7653.0976636284
6127.4123754424 5849.9527042927
-4831.3600524512 7103.1133875545
812.33849754014 -6349.7266684536
-2450.5139286008 -7389.0411754684
-4539.6705610434 -2784.2296041102
4815.8809417262 -6046.205313637
7211.4944377148 6309.5688544091
-7646.4686810814 45.861347219843
-8034.0868529538 -7756.6303174853
3503.1403710466 3010.252820463
-2965.6545004349 -7470.2102123714
-7276.5889277964 -5975.3535145928
-536.16628671818 -617.47791700507
-3575.8476769886 88.044605296125
-3122.1854987378 -1731.1995209172
-450.85773107543 -5186.7731309248
-4073.2468242539 2909.7822164734
-6275.6597433703 4931.0916732862
4752.0555480197 -534.17367197116
5734.0504978178 -7979.6150206531
4873.596731548 2357.9314319146
-5833.8203342901 3893.0911616334
475.50027869432 -5288.2890077421
-4253.0474987761 633.41342574051
-4852.9193252273 7442.0928722704
-4548.3337614258 373.4261819671
8163.882659899 -3632.9226892222
2590.0726673743 -564.28362681916
3941.5993937727 7206.2249903857
7715.760978477 -7372.5861049651
-2716.9745381609 -927.09676022786
-4367.3592358899 1401.7786375851
-6209.3145437545 -2451.0189792602
-1859.1296967581 6734.7410042653
5206.807356398 -4317.0791989402
6947.1259912416 1888.4040803166
6232.8522329744 -7078.6943506779
-2410.5047656794 -1483.6474883313
-4174.98335842 1528.4477355445
7341.7659374093 -835.90267601791
778.54060018553 -5398.5678240166
7729.5235059492 750.42326008455
-839.49051323882 2127.5961656941
-8005.860374364 -5089.8911194661
1141.8211484504 7901.900604113
-4270.4772244312 6616.8466179189
-1217.1961561149 -445.83646032113
-173.37475212541 765.48930013063
5295.144568048 6159.4955587459
-691.76970323351 2309.9519168166
-6349.5836478237 -1936.6437196213
-3993.6440104962 8075.2685851507
-823.33806266977 1787.8512238245
-1600.3789108099 3193.6785789103
-4875.7010482604 -2450.6129734007
