ply
format ascii 1.0
element vertex 652
property uint x
property uint y
end_header
74 687
77 676
78 663
85 651
95 651
113 651
134 656
148 652
146 662
147 688
148 678
136 669
121 666
105 663
88 669
93 682
108 685
124 681
135 683
147 693
139 692
130 693
119 691
107 691
94 691
82 692
74 692
84 678
81 659
73 653
91 664
103 669
106 679
115 677
125 674
136 671
139 677
137 658
123 662
120 653
112 657
118 667
98 653
73 661
73 670
73 678
146 667
129 652
139 651
114 660
109 664
97 669
96 676
131 664
118 642
126 641
142 638
144 629
139 620
126 623
121 632
113 631
103 622
94 612
83 614
75 619
79 634
93 634
111 642
100 688
127 686
87 657
96 657
104 653
108 654
105 639
147 618
393 683
389 659
391 642
389 613
387 586
386 555
387 520
386 495
380 467
379 415
377 379
375 343
368 310
379 265
374 220
370 189
368 162
369 142
378 681
377 665
378 640
376 619
375 593
375 571
373 546
372 511
371 482
371 456
371 421
365 397
366 378
374 360
358 349
367 331
379 313
378 287
369 270
358 252
368 237
379 229
362 208
375 204
373 180
369 151
376 158
358 168
363 189
365 219
362 232
378 260
372 263
360 286
366 301
359 318
375 337
376 327
384 348
379 373
362 373
366 396
366 441
375 411
377 392
355 420
376 436
381 448
363 456
360 472
367 488
374 503
394 491
383 482
385 505
329 513
370 524
375 529
370 543
374 557
368 574
368 580
368 596
369 609
370 622
370 631
370 650
368 667
369 685
368 691
367 696
375 695
386 695
396 694
394 685
389 691
381 685
379 691
386 680
385 668
372 669
373 674
391 678
389 666
385 654
374 656
378 648
382 645
369 641
383 632
384 619
386 627
380 610
387 597
381 597
379 571
376 586
381 575
388 570
382 555
382 542
388 533
385 527
381 515
380 498
373 476
373 468
371 447
378 412
374 398
373 367
370 352
373 325
375 305
376 290
369 269
371 248
370 217
370 186
387 479
376 494
399 631
412 633
431 633
452 625
488 633
514 630
534 629
569 626
598 626
622 628
356 631
328 630
309 631
275 630
248 627
225 628
210 627
187 626
192 617
214 603
233 596
252 584
274 572
287 567
310 556
322 552
345 548
359 543
395 541
423 548
440 556
468 563
499 567
539 579
573 592
595 601
617 611
447 544
482 542
514 539
544 533
568 530
553 514
540 495
524 481
505 462
487 458
476 440
449 439
428 427
413 424
390 406
362 532
340 524
318 527
302 524
278 525
259 526
233 526
217 529
201 523
212 511
239 496
263 482
286 462
306 449
322 438
340 422
358 414
407 402
444 397
466 396
493 398
513 395
491 367
466 349
441 327
424 316
413 293
390 291
388 276
346 405
331 405
311 406
291 405
280 405
256 400
240 403
245 387
266 372
278 350
287 340
297 319
315 297
327 291
356 278
388 263
437 259
407 258
457 259
441 238
429 221
421 201
412 181
392 159
375 140
350 267
329 266
308 263
285 267
282 254
300 240
314 219
320 201
328 183
336 170
345 156
357 147
362 132
175 621
194 630
226 623
244 621
274 622
303 622
329 624
353 624
394 624
434 626
458 622
497 619
529 629
543 619
577 620
607 619
611 610
589 601
560 593
545 584
502 573
492 570
472 567
449 557
424 552
387 546
358 544
342 550
316 556
298 564
278 571
255 575
248 596
222 601
191 605
189 624
514 574
524 576
558 628
470 625
467 624
402 547
413 545
438 541
456 533
470 530
504 534
489 535
515 535
529 533
564 531
570 521
556 504
540 483
526 472
501 456
485 448
457 434
430 425
403 421
389 412
365 420
343 430
323 438
303 438
299 454
271 460
275 464
256 478
245 485
238 492
224 500
210 516
195 518
194 533
203 533
238 533
256 528
275 524
296 522
325 522
341 523
361 527
377 524
401 533
415 533
428 533
442 533
383 399
399 397
411 400
430 401
440 399
459 395
488 395
504 395
517 391
503 378
494 369
486 362
483 354
471 347
455 340
452 327
445 325
413 310
410 303
387 294
382 287
344 287
328 300
314 307
303 320
288 329
282 331
275 342
271 359
258 376
242 385
233 398
237 396
256 399
280 400
260 400
270 404
292 400
303 402
325 401
334 402
352 398
363 399
387 264
411 264
396 259
418 261
421 264
425 264
454 259
461 262
443 259
450 251
442 233
430 223
429 209
428 208
418 195
408 184
405 179
403 169
397 167
392 154
380 145
358 135
349 145
342 153
335 161
328 169
322 174
323 187
309 213
307 226
301 237
288 247
276 256
273 264
291 265
296 265
321 262
334 265
355 267
364 264
348 273
326 267
309 269
295 266
369 171
372 272
377 283
368 277
400 293
435 321
465 446
441 431
263 580
335 548
353 523
461 557
376 135
400 142
418 143
401 137
389 125
379 125
396 111
403 98
398 88
390 103
374 108
367 81
362 74
368 97
360 77
357 91
353 99
351 109
341 106
329 99
317 94
316 100
334 111
344 115
331 117
320 123
312 133
332 130
348 127
361 119
363 118
362 110
362 101
358 90
358 86
359 78
358 71
363 80
363 96
364 88
361 76
370 98
374 107
380 100
389 97
398 92
403 90
406 88
400 95
396 105
399 97
396 98
391 116
385 118
389 122
396 125
401 133
408 139
397 140
410 139
411 139
400 140
393 138
386 135
381 135
394 133
388 130
382 110
391 108
383 101
382 122
374 126
367 127
363 123
371 110
376 119
371 115
372 110
370 99
368 115
352 107
344 97
334 96
325 94
313 93
323 99
332 103
337 107
348 109
357 113
346 101
330 95
345 111
338 117
329 117
324 120
318 127
320 132
329 129
332 119
339 126
350 125
355 124
348 118
336 119
327 122
356 126
349 131
359 132
359 128
362 102
346 105
364 107
370 105
382 113
378 128
370 128
347 135
345 144
341 155
348 155
346 145
351 133
354 123
350 140
339 129
346 125
344 130
369 137
365 137
